<?xml version="1.0" encoding="UTF-8" standalone="no"?>
<svg width="1024px" height="768px" viewBox="0 0 1024 768" version="1.1" xmlns="http://www.w3.org/2000/svg" xmlns:xlink="http://www.w3.org/1999/xlink" xmlns:sketch="http://www.bohemiancoding.com/sketch/ns">
    <!-- Generator: Sketch 3.2.2 (9983) - http://www.bohemiancoding.com/sketch -->
    <title>electrons</title>
    <desc>Created with Sketch.</desc>
    <defs></defs>
    <g id="Page-1" stroke="none" stroke-width="1" fill="none" fill-rule="evenodd" sketch:type="MSPage">
        <g id="electrons" sketch:type="MSArtboardGroup">
            <rect id="Rectangle-2" fill="#FAFBFA" sketch:type="MSShapeGroup" x="0" y="0" width="1024" height="768"></rect>
            <g id="waves" sketch:type="MSLayerGroup" transform="translate(-40.000000, -37.000000)" stroke="#444444" stroke-width="10">
                <path d="M0,40 L100,0 L200,40 L300,2.08687538e-08 L400,40 L500,2.08687538e-08 L600,40 L700,2.08687538e-08 L800,40 L900,2.08687538e-08 L1000,40 L1100,2.08687538e-08 L1200,40" id="Path-2" sketch:type="MSShapeGroup"></path>
                <path d="M0,60 L100,20 L200,60 L300,20 L400,60 L500,20 L600,60 L700,20 L800,60 L900,20 L1000,60 L1100,20 L1200,60" id="Path-2" sketch:type="MSShapeGroup"></path>
                <path d="M0,80 L100,40 L200,80 L300,40 L400,80 L500,40 L600,80 L700,40 L800,80 L900,40 L1000,80 L1100,40 L1200,80" id="Path-2" sketch:type="MSShapeGroup"></path>
                <path d="M0,100 L100,60 L200,100 L300,60 L400,100 L500,60 L600,100 L700,60 L800,100 L900,60 L1000,100 L1100,60 L1200,100" id="Path-3" sketch:type="MSShapeGroup"></path>
                <path d="M0,120 L100,80 L200,120 L300,80 L400,120 L500,80 L600,120 L700,80 L800,120 L900,80 L1000,120 L1100,80 L1200,120" id="Path-4" sketch:type="MSShapeGroup"></path>
                <path d="M0,140 L100,100 L200,140 L300,100 L400,140 L500,100 L600,140 L700,100 L800,140 L900,100 L1000,140 L1100,100 L1200,140" id="Path-5" sketch:type="MSShapeGroup"></path>
                <path d="M0,160 L100,120 L200,160 L300,120 L400,160 L500,120 L600,160 L700,120 L800,160 L900,120 L1000,160 L1100,120 L1200,160" id="Path-6" sketch:type="MSShapeGroup"></path>
                <path d="M0,180 L100,140 L200,180 L300,140 L400,180 L500,140 L600,180 L700,140 L800,180 L900,140 L1000,180 L1100,140 L1200,180" id="Path-7" sketch:type="MSShapeGroup"></path>
                <path d="M0,200 L100,160 L200,200 L300,160 L400,200 L500,160 L600,200 L700,160 L800,200 L900,160 L1000,200 L1100,160 L1200,200" id="Path-8" sketch:type="MSShapeGroup"></path>
                <path d="M0,220 L100,180 L200,220 L300,180 L400,220 L500,180 L600,220 L700,180 L800,220 L900,180 L1000,220 L1100,180 L1200,220" id="Path-9" sketch:type="MSShapeGroup"></path>
                <path d="M0,240 L100,200 L200,240 L300,200 L400,240 L500,200 L600,240 L700,200 L800,240 L900,200 L1000,240 L1100,200 L1200,240" id="Path-10" sketch:type="MSShapeGroup"></path>
                <path d="M0,260 L100,220 L200,260 L300,220 L400,260 L500,220 L600,260 L700,220 L800,260 L900,220 L1000,260 L1100,220 L1200,260" id="Path-11" sketch:type="MSShapeGroup"></path>
                <path d="M0,280 L100,240 L200,280 L300,240 L400,280 L500,240 L600,280 L700,240 L800,280 L900,240 L1000,280 L1100,240 L1200,280" id="Path-12" sketch:type="MSShapeGroup"></path>
                <path d="M0,300 L100,260 L200,300 L300,260 L400,300 L500,260 L600,300 L700,260 L800,300 L900,260 L1000,300 L1100,260 L1200,300" id="Path-13" sketch:type="MSShapeGroup"></path>
                <path d="M0,320 L100,280 L200,320 L300,280 L400,320 L500,280 L600,320 L700,280 L800,320 L900,280 L1000,320 L1100,280 L1200,320" id="Path-14" sketch:type="MSShapeGroup"></path>
                <path d="M0,340 L100,300 L200,340 L300,300 L400,340 L500,300 L600,340 L700,300 L800,340 L900,300 L1000,340 L1100,300 L1200,340" id="Path-15" sketch:type="MSShapeGroup"></path>
                <path d="M0,360 L100,320 L200,360 L300,320 L400,360 L500,320 L600,360 L700,320 L800,360 L900,320 L1000,360 L1100,320 L1200,360" id="Path-15" sketch:type="MSShapeGroup"></path>
                <path d="M0,380 L100,340 L200,380 L300,340 L400,380 L500,340 L600,380 L700,340 L800,380 L900,340 L1000,380 L1100,340 L1200,380" id="Path-16" sketch:type="MSShapeGroup"></path>
                <path d="M0,400 L100,360 L200,400 L300,360 L400,400 L500,360 L600,400 L700,360 L800,400 L900,360 L1000,400 L1100,360 L1200,400" id="Path-17" sketch:type="MSShapeGroup"></path>
                <path d="M0,420 L100,380 L200,420 L300,380 L400,420 L500,380 L600,420 L700,380 L800,420 L900,380 L1000,420 L1100,380 L1200,420" id="Path-18" sketch:type="MSShapeGroup"></path>
                <path d="M0,440 L100,400 L200,440 L300,400 L400,440 L500,400 L600,440 L700,400 L800,440 L900,400 L1000,440 L1100,400 L1200,440" id="Path-19" sketch:type="MSShapeGroup"></path>
                <path d="M0,460 L100,420 L200,460 L300,420 L400,460 L500,420 L600,460 L700,420 L800,460 L900,420 L1000,460 L1100,420 L1200,460" id="Path-20" sketch:type="MSShapeGroup"></path>
                <path d="M0,480 L100,440 L200,480 L300,440 L400,480 L500,440 L600,480 L700,440 L800,480 L900,440 L1000,480 L1100,440 L1200,480" id="Path-21" sketch:type="MSShapeGroup"></path>
                <path d="M0,500 L100,460 L200,500 L300,460 L400,500 L500,460 L600,500 L700,460 L800,500 L900,460 L1000,500 L1100,460 L1200,500" id="Path-22" sketch:type="MSShapeGroup"></path>
                <path d="M0,520 L100,480 L200,520 L300,480 L400,520 L500,480 L600,520 L700,480 L800,520 L900,480 L1000,520 L1100,480 L1200,520" id="Path-23" sketch:type="MSShapeGroup"></path>
                <path d="M0,540 L100,500 L200,540 L300,500 L400,540 L500,500 L600,540 L700,500 L800,540 L900,500 L1000,540 L1100,500 L1200,540" id="Path-24" sketch:type="MSShapeGroup"></path>
                <path d="M0,560 L100,520 L200,560 L300,520 L400,560 L500,520 L600,560 L700,520 L800,560 L900,520 L1000,560 L1100,520 L1200,560" id="Path-25" sketch:type="MSShapeGroup"></path>
                <path d="M0,580 L100,540 L200,580 L300,540 L400,580 L500,540 L600,580 L700,540 L800,580 L900,540 L1000,580 L1100,540 L1200,580" id="Path-26" sketch:type="MSShapeGroup"></path>
                <path d="M0,600 L100,560 L200,600 L300,560 L400,600 L500,560 L600,600 L700,560 L800,600 L900,560 L1000,600 L1100,560 L1200,600" id="Path-27" sketch:type="MSShapeGroup"></path>
                <path d="M0,620 L100,580 L200,620 L300,580 L400,620 L500,580 L600,620 L700,580 L800,620 L900,580 L1000,620 L1100,580 L1200,620" id="Path-28" sketch:type="MSShapeGroup"></path>
                <path d="M0,640 L100,600 L200,640 L300,600 L400,640 L500,600 L600,640 L700,600 L800,640 L900,600 L1000,640 L1100,600 L1200,640" id="Path-29" sketch:type="MSShapeGroup"></path>
                <path d="M0,660 L100,620 L200,660 L300,620 L400,660 L500,620 L600,660 L700,620 L800,660 L900,620 L1000,660 L1100,620 L1200,660" id="Path-30" sketch:type="MSShapeGroup"></path>
                <path d="M0,680 L100,640 L200,680 L300,640 L400,680 L500,640 L600,680 L700,640 L800,680 L900,640 L1000,680 L1100,640 L1200,680" id="Path-31" sketch:type="MSShapeGroup"></path>
                <path d="M0,700 L100,660 L200,700 L300,660 L400,700 L500,660 L600,700 L700,660 L800,700 L900,660 L1000,700 L1100,660 L1200,700" id="Path-32" sketch:type="MSShapeGroup"></path>
                <path d="M0,720 L100,680 L200,720 L300,680 L400,720 L500,680 L600,720 L700,680 L800,720 L900,680 L1000,720 L1100,680 L1200,720" id="Path-33" sketch:type="MSShapeGroup"></path>
                <path d="M0,740 L100,700 L200,740 L300,700 L400,740 L500,700 L600,740 L700,700 L800,740 L900,700 L1000,740 L1100,700 L1200,740" id="Path-34" sketch:type="MSShapeGroup"></path>
                <path d="M0,760 L100,720 L200,760 L300,720 L400,760 L500,720 L600,760 L700,720 L800,760 L900,720 L1000,760 L1100,720 L1200,760" id="Path-35" sketch:type="MSShapeGroup"></path>
                <path d="M0,780 L100,740 L200,780 L300,740 L400,780 L500,740 L600,780 L700,740 L800,780 L900,740 L1000,780 L1100,740 L1200,780" id="Path-36" sketch:type="MSShapeGroup"></path>
                <path d="M0,800 L100,760 L200,800 L300,760 L400,800 L500,760 L600,800 L700,760 L800,800 L900,760 L1000,800 L1100,760 L1200,800" id="Path-37" sketch:type="MSShapeGroup"></path>
                <path d="M0,820 L100,780 L200,820 L300,780 L400,820 L500,780 L600,820 L700,780 L800,820 L900,780 L1000,820 L1100,780 L1200,820" id="Path-38" sketch:type="MSShapeGroup"></path>
                <path d="M0,840 L100,800 L200,840 L300,800 L400,840 L500,800 L600,840 L700,800 L800,840 L900,800 L1000,840 L1100,800 L1200,840" id="Path-39" sketch:type="MSShapeGroup"></path>
            </g>
        </g>
    </g>
</svg>