<?xml version="1.0" encoding="UTF-8" standalone="no"?>
<svg width="867px" height="503px" viewBox="0 0 867 503" version="1.1" xmlns="http://www.w3.org/2000/svg" xmlns:xlink="http://www.w3.org/1999/xlink" xmlns:sketch="http://www.bohemiancoding.com/sketch/ns">
    <!-- Generator: Sketch 3.2.2 (9983) - http://www.bohemiancoding.com/sketch -->
    <title>graphene-is-special</title>
    <desc>Created with Sketch.</desc>
    <defs></defs>
    <g id="Page-1" stroke="none" stroke-width="1" fill="none" fill-rule="evenodd" sketch:type="MSPage">
        <g id="graphene-is-special" sketch:type="MSArtboardGroup" fill="#444444">
            <g id="text" sketch:type="MSLayerGroup">
                <path d="M336.924,437.692 L347.78,437.692 L347.78,502 L336.924,502 L336.924,437.692 Z M377.612,448.088 C375.58799,449.376006 374.576,451.32332 374.576,453.93 C374.576,456.53668 375.58799,458.529993 377.612,459.91 C379.63601,461.290007 383.944634,462.777325 390.538,464.372 C397.131366,465.966675 402.099317,468.205319 405.442,471.088 C408.784683,473.970681 410.456,478.217972 410.456,483.83 C410.456,489.442028 408.340021,493.995983 404.108,497.492 C399.875979,500.988017 394.325368,502.736 387.456,502.736 C377.397283,502.736 368.473372,499.270701 360.684,492.34 L367.492,484.152 C373.993366,489.794695 380.739965,492.616 387.732,492.616 C391.228017,492.616 394.003323,491.864674 396.058,490.362 C398.112677,488.859326 399.14,486.866012 399.14,484.382 C399.14,481.897988 398.17401,479.966007 396.242,478.586 C394.30999,477.205993 390.98269,475.948672 386.26,474.814 C381.53731,473.679328 377.949346,472.636671 375.496,471.686 C373.042654,470.735329 370.865343,469.493341 368.964,467.96 C365.161314,465.077319 363.26,460.661363 363.26,454.712 C363.26,448.762637 365.421978,444.178016 369.746,440.958 C374.070022,437.737984 379.421301,436.128 385.8,436.128 C389.909354,436.128 393.98798,436.80266 398.036,438.152 C402.08402,439.50134 405.579985,441.402654 408.524,443.856 L402.728,452.044 C400.826657,450.326658 398.250683,448.916006 395,447.812 C391.749317,446.707994 388.544682,446.156 385.386,446.156 C382.227318,446.156 379.63601,446.799994 377.612,448.088 L377.612,448.088 Z M461.38,448.088 C459.35599,449.376006 458.344,451.32332 458.344,453.93 C458.344,456.53668 459.35599,458.529993 461.38,459.91 C463.40401,461.290007 467.712634,462.777325 474.306,464.372 C480.899366,465.966675 485.867317,468.205319 489.21,471.088 C492.552683,473.970681 494.224,478.217972 494.224,483.83 C494.224,489.442028 492.108021,493.995983 487.876,497.492 C483.643979,500.988017 478.093368,502.736 471.224,502.736 C461.165283,502.736 452.241372,499.270701 444.452,492.34 L451.26,484.152 C457.761366,489.794695 464.507965,492.616 471.5,492.616 C474.996018,492.616 477.771323,491.864674 479.826,490.362 C481.880677,488.859326 482.908,486.866012 482.908,484.382 C482.908,481.897988 481.94201,479.966007 480.01,478.586 C478.07799,477.205993 474.75069,475.948672 470.028,474.814 C465.30531,473.679328 461.717346,472.636671 459.264,471.686 C456.810654,470.735329 454.633343,469.493341 452.732,467.96 C448.929314,465.077319 447.028,460.661363 447.028,454.712 C447.028,448.762637 449.189978,444.178016 453.514,440.958 C457.838022,437.737984 463.189301,436.128 469.568,436.128 C473.677354,436.128 477.75598,436.80266 481.804,438.152 C485.85202,439.50134 489.347985,441.402654 492.292,443.856 L486.496,452.044 C484.594657,450.326658 482.018683,448.916006 478.768,447.812 C475.517317,446.707994 472.312682,446.156 469.154,446.156 C465.995318,446.156 463.40401,446.799994 461.38,448.088 L461.38,448.088 Z M551.38,443.304 C555.857356,447.045352 558.096,452.810628 558.096,460.6 C558.096,468.389372 555.811356,474.093315 551.242,477.712 C546.672644,481.330685 539.665381,483.14 530.22,483.14 L518.812,483.14 L518.812,502 L507.956,502 L507.956,437.692 L530.036,437.692 C539.788049,437.692 546.902644,439.562648 551.38,443.304 L551.38,443.304 Z M543.698,469.846 C545.875344,467.545988 546.964,464.172689 546.964,459.726 C546.964,455.279311 545.584014,452.136009 542.824,450.296 C540.063986,448.455991 535.740029,447.536 529.852,447.536 L518.812,447.536 L518.812,473.296 L531.416,473.296 C537.426697,473.296 541.520656,472.146011 543.698,469.846 L543.698,469.846 Z M616.356,437.692 L616.356,447.904 L582.04,447.904 L582.04,464.924 L612.86,464.924 L612.86,474.584 L582.04,474.584 L582.04,491.788 L617.46,491.788 L617.46,502 L571.184,502 L571.184,437.692 L616.356,437.692 Z M661,492.156 C664.741352,492.156 667.96132,491.52734 670.66,490.27 C673.35868,489.01266 676.179985,487.004014 679.124,484.244 L686.116,491.42 C679.307966,498.964038 671.043382,502.736 661.322,502.736 C651.600618,502.736 643.535365,499.608031 637.126,493.352 C630.716635,487.095969 627.512,479.184048 627.512,469.616 C627.512,460.047952 630.777967,452.074699 637.31,445.696 C643.842033,439.317301 652.091284,436.128 662.058,436.128 C672.024717,436.128 680.350633,439.807963 687.036,447.168 L680.136,454.712 C677.069318,451.767985 674.171347,449.713339 671.442,448.548 C668.712653,447.382661 665.508018,446.8 661.828,446.8 C655.326634,446.8 649.868022,448.900646 645.452,453.102 C641.035978,457.303354 638.828,462.669967 638.828,469.202 C638.828,475.734033 641.020645,481.192645 645.406,485.578 C649.791355,489.963355 654.989303,492.156 661,492.156 L661,492.156 Z M699.664,437.692 L710.52,437.692 L710.52,502 L699.664,502 L699.664,437.692 Z M737.776,487.372 L731.336,502 L719.744,502 L748.08,437.692 L759.672,437.692 L788.008,502 L776.416,502 L769.976,487.372 L737.776,487.372 Z M765.56,477.344 L753.876,450.848 L742.192,477.344 L765.56,477.344 Z M797.232,502 L797.232,437.692 L808.088,437.692 L808.088,491.696 L837.436,491.696 L837.436,502 L797.232,502 Z M846.752,495.836 C846.752,493.934657 847.411327,492.324673 848.73,491.006 C850.048673,489.687327 851.658657,489.028 853.56,489.028 C855.461343,489.028 857.08666,489.687327 858.436,491.006 C859.78534,492.324673 860.46,493.934657 860.46,495.836 C860.46,497.737343 859.78534,499.36266 858.436,500.712 C857.08666,502.06134 855.461343,502.736 853.56,502.736 C851.658657,502.736 850.048673,502.06134 848.73,500.712 C847.411327,499.36266 846.752,497.737343 846.752,495.836 L846.752,495.836 Z" id="IS-SPECIAL." sketch:type="MSShapeGroup"></path>
                <path d="M33.076,393 L4.924,393 L4.924,328.692 L29.948,328.692 C34.3026884,328.692 38.0593175,329.213328 41.218,330.256 C44.3766825,331.298672 46.722659,332.709324 48.256,334.488 C51.2000147,337.800017 52.672,341.541312 52.672,345.712 C52.672,350.741358 51.0773493,354.482654 47.888,356.936 C46.7226608,357.794671 45.9253355,358.331332 45.496,358.546 C45.0666645,358.760668 44.3000055,359.113331 43.196,359.604 C47.1826866,360.462671 50.3566549,362.256653 52.718,364.986 C55.0793451,367.715347 56.26,371.10398 56.26,375.152 C56.26,379.629356 54.726682,383.585316 51.66,387.02 C48.0413152,391.006687 41.8467105,393 33.076,393 L33.076,393 Z M15.78,355.372 L29.58,355.372 C37.4307059,355.372 41.356,352.704027 41.356,347.368 C41.356,344.301318 40.4053428,342.09334 38.504,340.744 C36.6026572,339.39466 33.6586866,338.72 29.672,338.72 L15.78,338.72 L15.78,355.372 Z M15.78,382.972 L32.8,382.972 C36.7866866,382.972 39.8379894,382.34334 41.954,381.086 C44.0700106,379.82866 45.128,377.452017 45.128,373.956 C45.128,368.251971 40.5587124,365.4 31.42,365.4 L15.78,365.4 L15.78,382.972 Z M96.58,383.432 C101.609358,383.432 105.595985,381.714684 108.54,378.28 C111.484015,374.845316 112.956,370.184029 112.956,364.296 L112.956,328.692 L123.812,328.692 L123.812,364.756 C123.812,374.01738 121.266692,381.147308 116.176,386.146 C111.085308,391.144692 104.553373,393.644 96.58,393.644 C88.6066268,393.644 82.0746921,391.144692 76.984,386.146 C71.8933079,381.147308 69.348,374.01738 69.348,364.756 L69.348,328.692 L80.204,328.692 L80.204,364.296 C80.204,370.184029 81.6759853,374.845316 84.62,378.28 C87.5640147,381.714684 91.5506415,383.432 96.58,383.432 L96.58,383.432 Z M165.42,338.628 L165.42,393 L154.564,393 L154.564,338.628 L135.06,338.628 L135.06,328.692 L184.924,328.692 L184.924,338.628 L165.42,338.628 Z M194.148,387.02 C194.148,385.057324 194.82266,383.416673 196.172,382.098 C197.52134,380.779327 199.115991,380.12 200.956,380.12 C202.796009,380.12 204.405993,380.779327 205.786,382.098 C207.166007,383.416673 207.856,384.995991 207.856,386.836 C207.856,388.676009 207.028008,390.914653 205.372,393.552 L199.852,402.66 L194.516,402.66 L197.92,393.092 C195.405321,391.926661 194.148,389.902681 194.148,387.02 L194.148,387.02 Z M293.188,361.72 L304.044,361.72 L304.044,383.708 C297.97197,390.393367 289.29339,393.736 278.008,393.736 C268.501286,393.736 260.543365,390.608031 254.134,384.352 C247.724635,378.095969 244.52,370.184048 244.52,360.616 C244.52,351.047952 247.785967,343.074699 254.318,336.696 C260.850033,330.317301 268.74662,327.128 278.008,327.128 C287.26938,327.128 294.966636,329.82664 301.1,335.224 L295.304,343.504 C292.789321,341.357323 290.259346,339.870004 287.714,339.042 C285.168654,338.213996 282.20935,337.8 278.836,337.8 C272.334634,337.8 266.876022,339.900646 262.46,344.102 C258.043978,348.303354 255.836,353.823299 255.836,360.662 C255.836,367.500701 257.982645,372.989979 262.276,377.13 C266.569355,381.270021 271.767303,383.34 277.87,383.34 C283.972697,383.34 289.078646,382.021347 293.188,379.384 L293.188,361.72 Z M369.94,349.576 C369.94,360.18672 365.30938,366.871986 356.048,369.632 L372.884,393 L359.084,393 L343.72,371.38 L329.46,371.38 L329.46,393 L318.604,393 L318.604,328.692 L342.524,328.692 C352.337382,328.692 359.359979,330.347983 363.592,333.66 C367.824021,336.972017 369.94,342.277297 369.94,349.576 L369.94,349.576 Z M355.496,358.684 C357.704011,356.782657 358.808,353.731354 358.808,349.53 C358.808,345.328646 357.673345,342.446008 355.404,340.882 C353.134655,339.317992 349.086696,338.536 343.26,338.536 L329.46,338.536 L329.46,361.536 L342.984,361.536 C349.117364,361.536 353.287989,360.585343 355.496,358.684 L355.496,358.684 Z M394.988,378.372 L388.548,393 L376.956,393 L405.292,328.692 L416.884,328.692 L445.22,393 L433.628,393 L427.188,378.372 L394.988,378.372 Z M422.772,368.344 L411.088,341.848 L399.404,368.344 L422.772,368.344 Z M497.868,334.304 C502.345356,338.045352 504.584,343.810628 504.584,351.6 C504.584,359.389372 502.299356,365.093315 497.73,368.712 C493.160644,372.330685 486.153381,374.14 476.708,374.14 L465.3,374.14 L465.3,393 L454.444,393 L454.444,328.692 L476.524,328.692 C486.276049,328.692 493.390644,330.562648 497.868,334.304 L497.868,334.304 Z M490.186,360.846 C492.363344,358.545989 493.452,355.172689 493.452,350.726 C493.452,346.279311 492.072014,343.136009 489.312,341.296 C486.551986,339.455991 482.22803,338.536 476.34,338.536 L465.3,338.536 L465.3,364.296 L477.904,364.296 C483.914697,364.296 488.008656,363.146011 490.186,360.846 L490.186,360.846 Z M517.672,393 L517.672,328.692 L528.528,328.692 L528.528,356.568 L560.452,356.568 L560.452,328.692 L571.308,328.692 L571.308,393 L560.452,393 L560.452,366.688 L528.528,366.688 L528.528,393 L517.672,393 Z M634.628,328.692 L634.628,338.904 L600.312,338.904 L600.312,355.924 L631.132,355.924 L631.132,365.584 L600.312,365.584 L600.312,382.788 L635.732,382.788 L635.732,393 L589.456,393 L589.456,328.692 L634.628,328.692 Z M698.132,328.692 L708.988,328.692 L708.988,393 L697.212,393 L660.78,346.08 L660.78,393 L649.924,393 L649.924,328.692 L660.78,328.692 L698.132,376.716 L698.132,328.692 Z M772.308,328.692 L772.308,338.904 L737.992,338.904 L737.992,355.924 L768.812,355.924 L768.812,365.584 L737.992,365.584 L737.992,382.788 L773.412,382.788 L773.412,393 L727.136,393 L727.136,328.692 L772.308,328.692 Z" id="BUT,-GRAPHENE" sketch:type="MSShapeGroup"></path>
                <path d="M258.272,274.156 C262.013352,274.156 265.23332,273.52734 267.932,272.27 C270.63068,271.01266 273.451985,269.004014 276.396,266.244 L283.388,273.42 C276.579966,280.964038 268.315382,284.736 258.594,284.736 C248.872618,284.736 240.807365,281.608031 234.398,275.352 C227.988635,269.095969 224.784,261.184048 224.784,251.616 C224.784,242.047952 228.049967,234.074699 234.582,227.696 C241.114033,221.317301 249.363283,218.128 259.33,218.128 C269.296717,218.128 277.622633,221.807963 284.308,229.168 L277.408,236.712 C274.341318,233.767985 271.443347,231.713339 268.714,230.548 C265.984653,229.382661 262.780018,228.8 259.1,228.8 C252.598634,228.8 247.140022,230.900646 242.724,235.102 C238.307978,239.303354 236.1,244.669967 236.1,251.202 C236.1,257.734033 238.292645,263.192645 242.678,267.578 C247.063355,271.963355 252.261303,274.156 258.272,274.156 L258.272,274.156 Z M306.044,269.372 L299.604,284 L288.012,284 L316.348,219.692 L327.94,219.692 L356.276,284 L344.684,284 L338.244,269.372 L306.044,269.372 Z M333.828,259.344 L322.144,232.848 L310.46,259.344 L333.828,259.344 Z M416.836,240.576 C416.836,251.18672 412.20538,257.871986 402.944,260.632 L419.78,284 L405.98,284 L390.616,262.38 L376.356,262.38 L376.356,284 L365.5,284 L365.5,219.692 L389.42,219.692 C399.233382,219.692 406.255979,221.347983 410.488,224.66 C414.720021,227.972017 416.836,233.277297 416.836,240.576 L416.836,240.576 Z M402.392,249.684 C404.600011,247.782657 405.704,244.731354 405.704,240.53 C405.704,236.328646 404.569345,233.446008 402.3,231.882 C400.030655,230.317992 395.982696,229.536 390.156,229.536 L376.356,229.536 L376.356,252.536 L389.88,252.536 C396.013364,252.536 400.183989,251.585343 402.392,249.684 L402.392,249.684 Z M460.928,284 L432.776,284 L432.776,219.692 L457.8,219.692 C462.154688,219.692 465.911318,220.213328 469.07,221.256 C472.228682,222.298672 474.574659,223.709324 476.108,225.488 C479.052015,228.800017 480.524,232.541312 480.524,236.712 C480.524,241.741358 478.929349,245.482654 475.74,247.936 C474.574661,248.794671 473.777336,249.331332 473.348,249.546 C472.918665,249.760668 472.152006,250.113331 471.048,250.604 C475.034687,251.462671 478.208655,253.256653 480.57,255.986 C482.931345,258.715347 484.112,262.10398 484.112,266.152 C484.112,270.629356 482.578682,274.585316 479.512,278.02 C475.893315,282.006687 469.698711,284 460.928,284 L460.928,284 Z M443.632,246.372 L457.432,246.372 C465.282706,246.372 469.208,243.704027 469.208,238.368 C469.208,235.301318 468.257343,233.09334 466.356,231.744 C464.454657,230.39466 461.510687,229.72 457.524,229.72 L443.632,229.72 L443.632,246.372 Z M443.632,273.972 L460.652,273.972 C464.638687,273.972 467.689989,273.34334 469.806,272.086 C471.922011,270.82866 472.98,268.452017 472.98,264.956 C472.98,259.251971 468.410712,256.4 459.272,256.4 L443.632,256.4 L443.632,273.972 Z M527.744,228.064 C521.365301,228.064 515.983355,230.333311 511.598,234.872 C507.212645,239.410689 505.02,244.915301 505.02,251.386 C505.02,257.856699 507.212645,263.361311 511.598,267.9 C515.983355,272.438689 521.365301,274.708 527.744,274.708 C534.122699,274.708 539.504645,272.438689 543.89,267.9 C548.275355,263.361311 550.468,257.856699 550.468,251.386 C550.468,244.915301 548.275355,239.410689 543.89,234.872 C539.504645,230.333311 534.122699,228.064 527.744,228.064 L527.744,228.064 Z M527.744,284.644 C518.175952,284.644 510.141366,281.470032 503.64,275.122 C497.138634,268.773968 493.888,260.862047 493.888,251.386 C493.888,241.909953 497.138634,233.998032 503.64,227.65 C510.141366,221.301968 518.175952,218.128 527.744,218.128 C537.312048,218.128 545.346634,221.301968 551.848,227.65 C558.349366,233.998032 561.6,241.909953 561.6,251.386 C561.6,260.862047 558.349366,268.773968 551.848,275.122 C545.346634,281.470032 537.312048,284.644 527.744,284.644 L527.744,284.644 Z M623.816,219.692 L634.672,219.692 L634.672,284 L622.896,284 L586.464,237.08 L586.464,284 L575.608,284 L575.608,219.692 L586.464,219.692 L623.816,267.716 L623.816,219.692 Z" id="CARBON" sketch:type="MSShapeGroup"></path>
                <path d="M526.924,110.692 L537.78,110.692 L537.78,175 L526.924,175 L526.924,110.692 Z M567.612,121.088 C565.58799,122.376006 564.576,124.32332 564.576,126.93 C564.576,129.53668 565.58799,131.529993 567.612,132.91 C569.63601,134.290007 573.944634,135.777325 580.538,137.372 C587.131366,138.966675 592.099317,141.205319 595.442,144.088 C598.784683,146.970681 600.456,151.217972 600.456,156.83 C600.456,162.442028 598.340021,166.995983 594.108,170.492 C589.875979,173.988017 584.325368,175.736 577.456,175.736 C567.397283,175.736 558.473372,172.270701 550.684,165.34 L557.492,157.152 C563.993366,162.794695 570.739965,165.616 577.732,165.616 C581.228017,165.616 584.003323,164.864674 586.058,163.362 C588.112677,161.859326 589.14,159.866012 589.14,157.382 C589.14,154.897988 588.17401,152.966007 586.242,151.586 C584.30999,150.205993 580.98269,148.948672 576.26,147.814 C571.53731,146.679328 567.949346,145.636671 565.496,144.686 C563.042654,143.735329 560.865343,142.493341 558.964,140.96 C555.161314,138.077319 553.26,133.661363 553.26,127.712 C553.26,121.762637 555.421978,117.178016 559.746,113.958 C564.070022,110.737984 569.421301,109.128 575.8,109.128 C579.909354,109.128 583.98798,109.80266 588.036,111.152 C592.08402,112.50134 595.579985,114.402654 598.524,116.856 L592.728,125.044 C590.826657,123.326658 588.250683,121.916006 585,120.812 C581.749317,119.707994 578.544682,119.156 575.386,119.156 C572.227318,119.156 569.63601,119.799994 567.612,121.088 L567.612,121.088 Z M641.812,120.444 L641.812,110.692 L673.092,110.692 L673.092,153.104 C673.092,160.586704 671.190686,166.198648 667.388,169.94 C663.585314,173.681352 658.709363,175.552 652.76,175.552 C645.277296,175.552 638.898693,172.914693 633.624,167.64 L639.788,159.084 C643.958688,163.070687 648.037313,165.064 652.024,165.064 C654.845347,165.064 657.252657,164.113343 659.246,162.212 C661.239343,160.310657 662.236,157.458686 662.236,153.656 L662.236,120.444 L641.812,120.444 Z M717.092,165.432 C722.121359,165.432 726.107985,163.714684 729.052,160.28 C731.996015,156.845316 733.468,152.184029 733.468,146.296 L733.468,110.692 L744.324,110.692 L744.324,146.756 C744.324,156.01738 741.778692,163.147308 736.688,168.146 C731.597308,173.144692 725.065373,175.644 717.092,175.644 C709.118627,175.644 702.586692,173.144692 697.496,168.146 C692.405308,163.147308 689.86,156.01738 689.86,146.756 L689.86,110.692 L700.716,110.692 L700.716,146.296 C700.716,152.184029 702.187985,156.845316 705.132,160.28 C708.076015,163.714684 712.062642,165.432 717.092,165.432 L717.092,165.432 Z M773.328,121.088 C771.30399,122.376006 770.292,124.32332 770.292,126.93 C770.292,129.53668 771.30399,131.529993 773.328,132.91 C775.35201,134.290007 779.660634,135.777325 786.254,137.372 C792.847366,138.966675 797.815317,141.205319 801.158,144.088 C804.500683,146.970681 806.172,151.217972 806.172,156.83 C806.172,162.442028 804.056021,166.995983 799.824,170.492 C795.591979,173.988017 790.041368,175.736 783.172,175.736 C773.113283,175.736 764.189372,172.270701 756.4,165.34 L763.208,157.152 C769.709366,162.794695 776.455965,165.616 783.448,165.616 C786.944018,165.616 789.719323,164.864674 791.774,163.362 C793.828677,161.859326 794.856,159.866012 794.856,157.382 C794.856,154.897988 793.89001,152.966007 791.958,151.586 C790.02599,150.205993 786.69869,148.948672 781.976,147.814 C777.25331,146.679328 773.665346,145.636671 771.212,144.686 C768.758654,143.735329 766.581343,142.493341 764.68,140.96 C760.877314,138.077319 758.976,133.661363 758.976,127.712 C758.976,121.762637 761.137978,117.178016 765.462,113.958 C769.786022,110.737984 775.137301,109.128 781.516,109.128 C785.625354,109.128 789.70398,109.80266 793.752,111.152 C797.80002,112.50134 801.295985,114.402654 804.24,116.856 L798.444,125.044 C796.542657,123.326658 793.966683,121.916006 790.716,120.812 C787.465317,119.707994 784.260683,119.156 781.102,119.156 C777.943318,119.156 775.35201,119.799994 773.328,121.088 L773.328,121.088 Z M844.192,120.628 L844.192,175 L833.336,175 L833.336,120.628 L813.832,120.628 L813.832,110.692 L863.696,110.692 L863.696,120.628 L844.192,120.628 Z" id="IS-JUST" sketch:type="MSShapeGroup"></path>
                <path d="M49.452,34.72 L60.308,34.72 L60.308,56.708 C54.2359696,63.3933668 45.5573898,66.736 34.272,66.736 C24.7652858,66.736 16.8073654,63.6080313 10.398,57.352 C3.98863462,51.0959687 0.784,43.1840478 0.784,33.616 C0.784,24.0479522 4.04996734,16.0746986 10.582,9.696 C17.1140327,3.31730144 25.0106204,0.128 34.272,0.128 C43.5333796,0.128 51.230636,2.82663968 57.364,8.224 L51.568,16.504 C49.0533208,14.3573226 46.5233461,12.8700041 43.978,12.042 C41.4326539,11.2139959 38.4733502,10.8 35.1,10.8 C28.5986342,10.8 23.1400221,12.9006457 18.724,17.102 C14.3079779,21.3033543 12.1,26.8232991 12.1,33.662 C12.1,40.5007009 14.2466452,45.9899793 18.54,50.13 C22.8333548,54.2700207 28.0313028,56.34 34.134,56.34 C40.2366972,56.34 45.3426461,55.0213465 49.452,52.384 L49.452,34.72 Z M126.204,22.576 C126.204,33.1867197 121.57338,39.8719862 112.312,42.632 L129.148,66 L115.348,66 L99.984,44.38 L85.724,44.38 L85.724,66 L74.868,66 L74.868,1.692 L98.788,1.692 C108.601382,1.692 115.623979,3.34798344 119.856,6.66 C124.088021,9.97201656 126.204,15.2772968 126.204,22.576 L126.204,22.576 Z M111.76,31.684 C113.968011,29.7826572 115.072,26.7313543 115.072,22.53 C115.072,18.3286457 113.937345,15.4460078 111.668,13.882 C109.398655,12.3179922 105.350696,11.536 99.524,11.536 L85.724,11.536 L85.724,34.536 L99.248,34.536 C105.381364,34.536 109.551989,33.5853428 111.76,31.684 L111.76,31.684 Z M151.252,51.372 L144.812,66 L133.22,66 L161.556,1.692 L173.148,1.692 L201.484,66 L189.892,66 L183.452,51.372 L151.252,51.372 Z M179.036,41.344 L167.352,14.848 L155.668,41.344 L179.036,41.344 Z M254.132,7.304 C258.609356,11.045352 260.848,16.8106277 260.848,24.6 C260.848,32.3893723 258.563356,38.0933152 253.994,41.712 C249.424644,45.3306848 242.417381,47.14 232.972,47.14 L221.564,47.14 L221.564,66 L210.708,66 L210.708,1.692 L232.788,1.692 C242.540049,1.692 249.654644,3.56264796 254.132,7.304 L254.132,7.304 Z M246.45,33.846 C248.627344,31.5459885 249.716,28.1726889 249.716,23.726 C249.716,19.2793111 248.336014,16.1360092 245.576,14.296 C242.815986,12.4559908 238.492029,11.536 232.604,11.536 L221.564,11.536 L221.564,37.296 L234.168,37.296 C240.178697,37.296 244.272656,36.1460115 246.45,33.846 L246.45,33.846 Z M273.936,66 L273.936,1.692 L284.792,1.692 L284.792,29.568 L316.716,29.568 L316.716,1.692 L327.572,1.692 L327.572,66 L316.716,66 L316.716,39.688 L284.792,39.688 L284.792,66 L273.936,66 Z M390.892,1.692 L390.892,11.904 L356.576,11.904 L356.576,28.924 L387.396,28.924 L387.396,38.584 L356.576,38.584 L356.576,55.788 L391.996,55.788 L391.996,66 L345.72,66 L345.72,1.692 L390.892,1.692 Z M454.396,1.692 L465.252,1.692 L465.252,66 L453.476,66 L417.044,19.08 L417.044,66 L406.188,66 L406.188,1.692 L417.044,1.692 L454.396,49.716 L454.396,1.692 Z M528.572,1.692 L528.572,11.904 L494.256,11.904 L494.256,28.924 L525.076,28.924 L525.076,38.584 L494.256,38.584 L494.256,55.788 L529.676,55.788 L529.676,66 L483.4,66 L483.4,1.692 L528.572,1.692 Z" id="GRAPHENE" sketch:type="MSShapeGroup"></path>
            </g>
        </g>
    </g>
</svg>
